<svg width="24" height="24" viewBox="0 0 24 24" fill="none" xmlns="http://www.w3.org/2000/svg">
<g clip-path="url(#clip0_4_60)">
<rect x="7.64112" y="0.664463" width="11.9008" height="16.5082" rx="0.5" transform="rotate(25 7.64112 0.664463)" stroke="#343330"/>
<rect x="8.4141" y="6.66446" width="5.67219" height="6.50622" rx="0.5" transform="rotate(25 8.4141 6.66446)" stroke="#343330"/>
<path fill-rule="evenodd" clip-rule="evenodd" d="M20 23.5C19.7239 23.5 19.5 23.2761 19.5 23V11C19.5 10.7239 19.7239 10.5 20 10.5C20.2762 10.5 20.5 10.7239 20.5 11V23C20.5 23.2761 20.2762 23.5 20 23.5Z" fill="#343330"/>
<path d="M17 14.0545L17.2067 13.9944C19.0311 13.4637 20.9689 13.4637 22.7933 13.9944L23 14.0545" stroke="#343330" stroke-linecap="round"/>
<ellipse cx="20" cy="18.875" rx="1.5" ry="1.875" fill="#343330"/>
</g>
<defs>
<clipPath id="clip0_4_60">
<rect width="24" height="24" fill="white"/>
</clipPath>
</defs>
</svg>
