<svg width="24" height="24" viewBox="0 0 24 24" fill="none" xmlns="http://www.w3.org/2000/svg">
<g clip-path="url(#clip0_4_60)">
<path fill-rule="evenodd" clip-rule="evenodd" d="M19 21.5C18.7239 21.5 18.5 21.2761 18.5 21V9C18.5 8.72386 18.7239 8.5 19 8.5C19.2762 8.5 19.5 8.72386 19.5 9V21C19.5 21.2761 19.2762 21.5 19 21.5Z" fill="#343330"/>
<path d="M16 12.0545L16.2067 11.9944C18.0311 11.4637 19.9689 11.4637 21.7933 11.9944L22 12.0545" stroke="#343330" stroke-linecap="round"/>
<ellipse cx="19" cy="16.875" rx="1.5" ry="1.875" fill="#343330"/>
<path d="M19.2836 3.22109L18.0336 4.47109C17.975 4.52973 17.8954 4.56267 17.8125 4.56267C17.7296 4.56267 17.65 4.52973 17.5914 4.47109C17.5328 4.41246 17.4998 4.33293 17.4998 4.25C17.4998 4.16707 17.5328 4.08754 17.5914 4.02891L18.3082 3.3125L11.6918 3.3125L12.4086 4.02891C12.4672 4.08754 12.5002 4.16707 12.5002 4.25C12.5002 4.33293 12.4672 4.41246 12.4086 4.47109C12.35 4.52973 12.2704 4.56267 12.1875 4.56267C12.1046 4.56267 12.025 4.52973 11.9664 4.47109L10.7164 3.22109C10.6874 3.19207 10.6643 3.15761 10.6486 3.11967C10.6329 3.08173 10.6248 3.04107 10.6248 3C10.6248 2.95893 10.6329 2.91827 10.6486 2.88033C10.6643 2.84239 10.6874 2.80793 10.7164 2.77891L11.9664 1.52891C12.025 1.47027 12.1046 1.43733 12.1875 1.43733C12.2704 1.43733 12.35 1.47027 12.4086 1.52891C12.4672 1.58754 12.5002 1.66707 12.5002 1.75C12.5002 1.83293 12.4672 1.91246 12.4086 1.97109L11.6918 2.6875L18.3082 2.6875L17.5914 1.97109C17.5328 1.91246 17.4998 1.83293 17.4998 1.75C17.4998 1.66707 17.5328 1.58754 17.5914 1.52891C17.65 1.47027 17.7296 1.43733 17.8125 1.43733C17.8954 1.43733 17.975 1.47027 18.0336 1.52891L19.2836 2.77891C19.3127 2.80793 19.3357 2.84239 19.3514 2.88033C19.3672 2.91827 19.3752 2.95893 19.3752 3C19.3752 3.04107 19.3672 3.08173 19.3514 3.11967C19.3357 3.15761 19.3127 3.19207 19.2836 3.22109Z" fill="#343330"/>
<rect x="1.5" y="5.5" width="13" height="18" rx="0.5" stroke="#343330"/>
<rect x="5" y="11.5" width="6" height="7" rx="0.5" stroke="#343330"/>
</g>
<defs>
<clipPath id="clip0_4_60">
<rect width="24" height="24" fill="white"/>
</clipPath>
</defs>
</svg>
