<svg width="24" height="24" viewBox="0 0 24 24" fill="none" xmlns="http://www.w3.org/2000/svg">
<g clip-path="url(#clip0_5_250)">
<path d="M9.5 11C9.5 11.0663 9.47366 11.1299 9.42678 11.1768C9.37989 11.2237 9.31631 11.25 9.25 11.25C8.38833 11.2491 7.56221 10.9064 6.95291 10.2971C6.34361 9.6878 6.00091 8.86167 6 8V5.60344L4.92688 6.67688C4.87997 6.72379 4.81634 6.75014 4.75 6.75014C4.68366 6.75014 4.62004 6.72379 4.57313 6.67688C4.52622 6.62997 4.49986 6.56634 4.49986 6.5C4.49986 6.43366 4.52622 6.37004 4.57313 6.32313L6.07313 4.82313C6.09634 4.79988 6.12392 4.78144 6.15427 4.76886C6.18462 4.75628 6.21715 4.7498 6.25 4.7498C6.28286 4.7498 6.31539 4.75628 6.34574 4.76886C6.37609 4.78144 6.40366 4.79988 6.42688 4.82313L7.92688 6.32313C7.97379 6.37004 8.00014 6.43366 8.00014 6.5C8.00014 6.56634 7.97379 6.62997 7.92688 6.67688C7.87997 6.72379 7.81634 6.75014 7.75 6.75014C7.68366 6.75014 7.62004 6.72379 7.57313 6.67688L6.5 5.60344V8C6.50083 8.72909 6.79083 9.42808 7.30637 9.94363C7.82192 10.4592 8.52091 10.7492 9.25 10.75C9.31631 10.75 9.37989 10.7763 9.42678 10.8232C9.47366 10.8701 9.5 10.9337 9.5 11Z" fill="#343330" stroke="#343330" stroke-width="0.4"/>
<path fill-rule="evenodd" clip-rule="evenodd" d="M15 24.5C14.7239 24.5 14.5 24.2761 14.5 24V9C14.5 8.72386 14.7239 8.5 15 8.5C15.2762 8.5 15.5 8.72386 15.5 9V24C15.5 24.2761 15.2762 24.5 15 24.5Z" fill="#343330"/>
<path d="M11 12.8182L12.3688 12.4449C14.0915 11.975 15.9085 11.975 17.6312 12.4449L19 12.8182" stroke="#343330" stroke-linecap="round"/>
<ellipse cx="15" cy="18.8438" rx="2" ry="2.34375" fill="#343330"/>
<path d="M18 2H12C11.8674 2 11.7402 2.05268 11.6464 2.14645C11.5527 2.24021 11.5 2.36739 11.5 2.5V4.75C11.5 4.88261 11.5527 5.00979 11.6464 5.10355C11.7402 5.19732 11.8674 5.25 12 5.25H12.75V6.25C12.75 6.3163 12.7763 6.37989 12.8232 6.42678C12.8701 6.47366 12.9337 6.5 13 6.5C13.0663 6.5 13.1299 6.47366 13.1768 6.42678C13.2237 6.37989 13.25 6.3163 13.25 6.25V5.25H16.75V6.25C16.75 6.3163 16.7763 6.37989 16.8232 6.42678C16.8701 6.47366 16.9337 6.5 17 6.5C17.0663 6.5 17.1299 6.47366 17.1768 6.42678C17.2237 6.37989 17.25 6.3163 17.25 6.25V5.25H18C18.1326 5.25 18.2598 5.19732 18.3536 5.10355C18.4473 5.00979 18.5 4.88261 18.5 4.75V2.5C18.5 2.36739 18.4473 2.24021 18.3536 2.14645C18.2598 2.05268 18.1326 2 18 2ZM18 4.02156L16.4784 2.5H18V4.02156ZM13.5216 2.5L15.7716 4.75H14.2284L12 2.52156V2.5H13.5216ZM12 3.22844L13.5216 4.75H12V3.22844ZM18 4.75H16.4784L14.2284 2.5H15.7716L18 4.72875V4.75Z" fill="#343330" stroke="#343330" stroke-width="0.2"/>
</g>
<defs>
<clipPath id="clip0_5_250">
<rect width="24" height="24" fill="white"/>
</clipPath>
</defs>
</svg>
