<svg width="24" height="24" viewBox="0 0 24 24" fill="none" xmlns="http://www.w3.org/2000/svg">
<path fill-rule="evenodd" clip-rule="evenodd" d="M14.5 22.5C14.2239 22.5 14 22.2761 14 22V11C14 10.7239 14.2239 10.5 14.5 10.5C14.7762 10.5 15 10.7239 15 11V22C15 22.2761 14.7762 22.5 14.5 22.5Z" fill="#343330"/>
<path d="M11 13.8L12.2718 13.5093C13.7383 13.1741 15.2617 13.1741 16.7282 13.5093L18 13.8" stroke="#343330" stroke-linecap="round"/>
<ellipse cx="14.5" cy="18.2188" rx="1.75" ry="1.71875" fill="#343330"/>
<path d="M10.5 12C10.5 12.0663 10.4736 12.1299 10.4268 12.1768C10.3799 12.2237 10.3163 12.25 10.25 12.25C9.38831 12.2491 8.56219 11.9064 7.95289 11.2971C7.3436 10.6878 7.0009 9.86167 6.99999 9V6.60344L5.92686 7.67688C5.87995 7.72379 5.81633 7.75014 5.74999 7.75014C5.68365 7.75014 5.62002 7.72379 5.57311 7.67688C5.5262 7.62997 5.49985 7.56634 5.49985 7.5C5.49985 7.43366 5.5262 7.37004 5.57311 7.32313L7.07311 5.82313C7.09633 5.79988 7.1239 5.78144 7.15425 5.76886C7.1846 5.75628 7.21713 5.7498 7.24999 5.7498C7.28284 5.7498 7.31537 5.75628 7.34572 5.76886C7.37607 5.78144 7.40364 5.79988 7.42686 5.82313L8.92686 7.32313C8.97377 7.37004 9.00013 7.43366 9.00013 7.5C9.00013 7.56634 8.97377 7.62997 8.92686 7.67688C8.87995 7.72379 8.81633 7.75014 8.74999 7.75014C8.68365 7.75014 8.62002 7.72379 8.57311 7.67688L7.49999 6.60344V9C7.50081 9.72909 7.79081 10.4281 8.30636 10.9436C8.8219 11.4592 9.5209 11.7492 10.25 11.75C10.3163 11.75 10.3799 11.7763 10.4268 11.8232C10.4736 11.8701 10.5 11.9337 10.5 12Z" fill="#343330" stroke="#343330" stroke-width="0.4"/>
<path d="M17.5546 4.41797L17.1056 2.01172C17.0946 1.95307 17.0718 1.89728 17.0384 1.84778C17.0051 1.79829 16.962 1.75614 16.9118 1.72392C16.8615 1.6917 16.8053 1.67009 16.7464 1.66043C16.6875 1.65077 16.6273 1.65325 16.5694 1.66773L16.5609 1.6702L15.1248 2.09375H13.8752L12.4391 1.67156L12.4306 1.6691C12.3727 1.65462 12.3125 1.65214 12.2536 1.6618C12.1947 1.67146 12.1384 1.69306 12.0882 1.72528C12.038 1.7575 11.9949 1.79966 11.9616 1.84915C11.9282 1.89864 11.9054 1.95443 11.8944 2.01309L11.4454 4.41797C11.4262 4.51428 11.4405 4.61426 11.4858 4.70138C11.5312 4.78849 11.6049 4.85751 11.6948 4.89703C11.7524 4.92344 11.8149 4.93723 11.8783 4.9375C11.9541 4.93747 12.0285 4.91707 12.0937 4.87844V6.03125C12.0937 6.32133 12.209 6.59953 12.4141 6.80465C12.6192 7.00977 12.8974 7.125 13.1875 7.125H15.8125C16.1026 7.125 16.3808 7.00977 16.5859 6.80465C16.791 6.59953 16.9062 6.32133 16.9062 6.03125V4.87871C16.9714 4.91727 17.0457 4.93766 17.1214 4.93777C17.1849 4.93759 17.2475 4.92389 17.3052 4.89758C17.3952 4.85804 17.469 4.78893 17.5144 4.7017C17.5597 4.61447 17.5739 4.51436 17.5546 4.41797ZM11.875 4.5L12.3243 2.09375L13.4746 2.43199L11.875 4.5ZM15.8125 6.6875H14.7187V6.34051L15.0923 5.96727C15.1333 5.92622 15.1564 5.87055 15.1564 5.8125C15.1564 5.75445 15.1333 5.69878 15.0923 5.65773C15.0512 5.61669 14.9955 5.59363 14.9375 5.59363C14.8794 5.59363 14.8238 5.61669 14.7827 5.65773L14.5 5.94074L14.2173 5.65773C14.1762 5.61669 14.1205 5.59363 14.0625 5.59363C14.0044 5.59363 13.9488 5.61669 13.9077 5.65773C13.8667 5.69878 13.8436 5.75445 13.8436 5.8125C13.8436 5.87055 13.8667 5.92622 13.9077 5.96727L14.2812 6.34051V6.6875H13.1875C13.0134 6.6875 12.8465 6.61836 12.7235 6.49529C12.6004 6.37222 12.5312 6.2053 12.5312 6.03125V4.36629L13.9509 2.53125H15.0488L16.4687 4.36629V6.03125C16.4687 6.2053 16.3996 6.37222 16.2765 6.49529C16.1535 6.61836 15.9865 6.6875 15.8125 6.6875ZM17.125 4.5L15.5254 2.43199L16.6757 2.09375L17.125 4.5ZM13.8437 4.82813C13.8437 4.89302 13.8245 4.95646 13.7884 5.01042C13.7524 5.06438 13.7011 5.10644 13.6412 5.13127C13.5812 5.15611 13.5153 5.16261 13.4516 5.14995C13.388 5.13728 13.3295 5.10603 13.2836 5.06014C13.2377 5.01426 13.2065 4.95579 13.1938 4.89214C13.1811 4.82849 13.1876 4.76251 13.2125 4.70256C13.2373 4.6426 13.2794 4.59135 13.3333 4.5553C13.3873 4.51924 13.4507 4.5 13.5156 4.5C13.6026 4.5 13.6861 4.53457 13.7476 4.59611C13.8092 4.65764 13.8437 4.7411 13.8437 4.82813ZM15.8125 4.82813C15.8125 4.89302 15.7933 4.95646 15.7572 5.01042C15.7211 5.06438 15.6699 5.10644 15.6099 5.13127C15.55 5.15611 15.484 5.16261 15.4204 5.14995C15.3567 5.13728 15.2982 5.10603 15.2524 5.06014C15.2065 5.01426 15.1752 4.95579 15.1625 4.89214C15.1499 4.82849 15.1564 4.76251 15.1812 4.70256C15.2061 4.6426 15.2481 4.59135 15.3021 4.5553C15.356 4.51924 15.4195 4.5 15.4844 4.5C15.5714 4.5 15.6549 4.53457 15.7164 4.59611C15.7779 4.65764 15.8125 4.7411 15.8125 4.82813Z" fill="#343330" stroke="#343330" stroke-width="0.3"/>
</svg>
