<svg width="24" height="24" viewBox="0 0 24 24" fill="none" xmlns="http://www.w3.org/2000/svg">
<g clip-path="url(#clip0_4_70)">
<rect x="0.000666142" y="0.707772" width="9" height="14" rx="0.5" transform="matrix(0.707107 0.707107 -0.705774 0.708436 17.0863 -0.794111)" stroke="#343330"/>
<rect x="0.000666142" y="0.707772" width="5" height="5" rx="0.5" transform="matrix(0.707107 0.707107 -0.705774 0.708436 15.4363 3.68865)" stroke="#343330"/>
<path fill-rule="evenodd" clip-rule="evenodd" d="M1.61136 21.6206C1.41628 21.4252 1.41628 21.1083 1.61136 20.9129L7.89798 14.6144C8.09306 14.419 8.40935 14.419 8.60443 14.6144C8.7995 14.8098 8.7995 15.1267 8.60443 15.3222L2.3178 21.6206C2.12272 21.8161 1.80644 21.8161 1.61136 21.6206Z" fill="#343330"/>
<path d="M4.68639 14.6032L5.13422 14.8825C6.43284 15.6923 7.52851 16.7901 8.3368 18.0911L8.61553 18.5398" stroke="#343330" stroke-linecap="round"/>
<circle cx="1.39047" cy="1.39047" r="1.39047" transform="matrix(0.706441 0.707772 -0.706441 0.707772 4.1256 17.1334)" fill="#343330"/>
<path d="M19.0153 15.5153L16.6552 17.875H18C18.0995 17.875 18.1948 17.9145 18.2652 17.9848C18.3355 18.0552 18.375 18.1505 18.375 18.25C18.375 18.3495 18.3355 18.4448 18.2652 18.5152C18.1948 18.5855 18.0995 18.625 18 18.625H15.75C15.6505 18.625 15.5552 18.5855 15.4848 18.5152C15.4145 18.4448 15.375 18.3495 15.375 18.25V16C15.375 15.9005 15.4145 15.8052 15.4848 15.7348C15.5552 15.6645 15.6505 15.625 15.75 15.625C15.8495 15.625 15.9448 15.6645 16.0152 15.7348C16.0855 15.8052 16.125 15.9005 16.125 16V17.3448L18.4847 14.9847C18.555 14.9143 18.6505 14.8748 18.75 14.8748C18.8495 14.8748 18.9449 14.9143 19.0153 14.9847C19.0857 15.0551 19.1252 15.1505 19.1252 15.25C19.1252 15.3495 19.0857 15.4449 19.0153 15.5153ZM14.25 19.375H12C11.9005 19.375 11.8052 19.4145 11.7348 19.4848C11.6645 19.5552 11.625 19.6505 11.625 19.75C11.625 19.8495 11.6645 19.9448 11.7348 20.0152C11.8052 20.0855 11.9005 20.125 12 20.125H13.3448L10.9847 22.4847C10.9143 22.5551 10.8748 22.6505 10.8748 22.75C10.8748 22.8495 10.9143 22.9449 10.9847 23.0153C11.055 23.0857 11.1505 23.1252 11.25 23.1252C11.3495 23.1252 11.4449 23.0857 11.5153 23.0153L13.875 20.6552V22C13.875 22.0995 13.9145 22.1948 13.9848 22.2652C14.0552 22.3355 14.1505 22.375 14.25 22.375C14.3495 22.375 14.4448 22.3355 14.5152 22.2652C14.5855 22.1948 14.625 22.0995 14.625 22V19.75C14.625 19.6505 14.5855 19.5552 14.5152 19.4848C14.4448 19.4145 14.3495 19.375 14.25 19.375Z" fill="#343330"/>
</g>
<defs>
<clipPath id="clip0_4_70">
<rect width="24" height="24" fill="white"/>
</clipPath>
</defs>
</svg>
