<svg width="24" height="24" viewBox="0 0 24 24" fill="none" xmlns="http://www.w3.org/2000/svg">
<rect x="10.5" y="10.5" width="8" height="12" rx="0.5" stroke="#343330"/>
<rect x="12.5" y="14.5" width="4" height="4" rx="0.5" stroke="#343330"/>
<path fill-rule="evenodd" clip-rule="evenodd" d="M8.49998 0.5C8.77613 0.5 8.99998 0.723858 8.99998 1L8.99998 9C8.99998 9.27614 8.77613 9.5 8.49998 9.5C8.22384 9.5 7.99998 9.27614 7.99998 9L7.99998 1C7.99998 0.723858 8.22384 0.5 8.49998 0.5Z" fill="#343330"/>
<path d="M11 6.96364L10.7667 7.01793C9.27549 7.36498 7.72451 7.36498 6.2333 7.01793L6 6.96364" stroke="#343330" stroke-linecap="round"/>
<circle cx="8.5" cy="3.75" r="1.25" transform="rotate(-180 8.5 3.75)" fill="#343330"/>
</svg>
