<svg width="24" height="24" viewBox="0 0 24 24" fill="none" xmlns="http://www.w3.org/2000/svg">
<g clip-path="url(#clip0_4_70)">
<path fill-rule="evenodd" clip-rule="evenodd" d="M4.49998 0.5C4.77613 0.5 4.99998 0.723858 4.99998 1L4.99998 14C4.99998 14.2761 4.77613 14.5 4.49998 14.5C4.22384 14.5 3.99998 14.2761 3.99998 14L3.99998 1C3.99998 0.723858 4.22384 0.5 4.49998 0.5Z" fill="#343330"/>
<path d="M8 10.6909L7.10783 10.9319C5.39988 11.3933 3.60012 11.3933 1.89217 10.9319L1 10.6909" stroke="#343330" stroke-linecap="round"/>
<ellipse cx="4.5" cy="5.46875" rx="1.75" ry="2.03125" transform="rotate(-180 4.5 5.46875)" fill="#343330"/>
<rect x="9.5" y="9.5" width="13" height="18" rx="0.5" stroke="#343330"/>
<rect x="13" y="15.5" width="6" height="7" rx="0.5" stroke="#343330"/>
</g>
<defs>
<clipPath id="clip0_4_70">
<rect width="24" height="24" fill="white"/>
</clipPath>
</defs>
</svg>
