<svg width="24" height="24" viewBox="0 0 24 24" fill="none" xmlns="http://www.w3.org/2000/svg">
<g clip-path="url(#clip0_5_154)">
<rect x="3.5" y="9.5" width="8" height="12" rx="0.5" stroke="#343330"/>
<rect x="5.5" y="13.5" width="4" height="4" rx="0.5" stroke="#343330"/>
<path fill-rule="evenodd" clip-rule="evenodd" d="M17.5 20.5C17.2239 20.5 17 20.2761 17 20V12C17 11.7239 17.2239 11.5 17.5 11.5C17.7761 11.5 18 11.7239 18 12V20C18 20.2761 17.7761 20.5 17.5 20.5Z" fill="#343330"/>
<path d="M15 14.0364L15.2333 13.9821C16.7245 13.635 18.2755 13.635 19.7667 13.9821L20 14.0364" stroke="#343330" stroke-linecap="round"/>
<circle cx="17.5" cy="17.25" r="1.25" fill="#343330"/>
<path d="M18.111 3.71195L15.5797 5.77445C15.5006 5.83896 15.3932 5.87519 15.2812 5.87519C15.1693 5.87519 15.0619 5.83896 14.9828 5.77445C14.9036 5.70995 14.8591 5.62247 14.8591 5.53125C14.8591 5.44003 14.9036 5.35255 14.9828 5.28805L16.7942 3.8125H12.75C11.5197 3.81364 10.3401 4.21238 9.47012 4.92126C8.60014 5.63013 8.11077 6.59125 8.10938 7.59375C8.10938 7.68492 8.06493 7.77235 7.98581 7.83682C7.90669 7.90128 7.79939 7.9375 7.6875 7.9375C7.57561 7.9375 7.46831 7.90128 7.38919 7.83682C7.31007 7.77235 7.26562 7.68492 7.26562 7.59375C7.26716 6.40895 7.84547 5.27303 8.87366 4.43525C9.90184 3.59747 11.2959 3.12625 12.75 3.125H16.7942L14.9828 1.64945C14.9436 1.61752 14.9125 1.5796 14.8913 1.53787C14.8701 1.49614 14.8591 1.45142 14.8591 1.40625C14.8591 1.36108 14.8701 1.31636 14.8913 1.27463C14.9125 1.2329 14.9436 1.19499 14.9828 1.16305C15.0619 1.09855 15.1693 1.06231 15.2812 1.06231C15.3367 1.06231 15.3916 1.07121 15.4428 1.08849C15.494 1.10577 15.5405 1.13111 15.5797 1.16305L18.111 3.22555C18.1502 3.25747 18.1813 3.29538 18.2025 3.33711C18.2238 3.37885 18.2347 3.42358 18.2347 3.46875C18.2347 3.51392 18.2238 3.55866 18.2025 3.60039C18.1813 3.64212 18.1502 3.68003 18.111 3.71195Z" fill="#343330" stroke="black" stroke-width="0.1"/>
</g>
<defs>
<clipPath id="clip0_5_154">
<rect width="24" height="24" fill="white"/>
</clipPath>
</defs>
</svg>
