<svg width="24" height="24" viewBox="0 0 24 24" fill="none" xmlns="http://www.w3.org/2000/svg">
<g clip-path="url(#clip0_5_154)">
<path d="M18.111 2.71195L15.5797 4.77445C15.5006 4.83895 15.3932 4.87519 15.2812 4.87519C15.1693 4.87519 15.0619 4.83895 14.9828 4.77445C14.9036 4.70995 14.8591 4.62247 14.8591 4.53125C14.8591 4.44003 14.9036 4.35255 14.9828 4.28805L16.7942 2.8125H12.75C11.5197 2.81364 10.3401 3.21238 9.47012 3.92126C8.60014 4.63013 8.11077 5.59125 8.10938 6.59375C8.10938 6.68492 8.06493 6.77235 7.98581 6.83682C7.90669 6.90128 7.79939 6.9375 7.6875 6.9375C7.57561 6.9375 7.46831 6.90128 7.38919 6.83682C7.31007 6.77235 7.26562 6.68492 7.26562 6.59375C7.26716 5.40895 7.84547 4.27303 8.87366 3.43525C9.90184 2.59747 11.2959 2.12625 12.75 2.125H16.7942L14.9828 0.649453C14.9436 0.617515 14.9125 0.579599 14.8913 0.537871C14.8701 0.496142 14.8591 0.451417 14.8591 0.40625C14.8591 0.361083 14.8701 0.316358 14.8913 0.274629C14.9125 0.2329 14.9436 0.194985 14.9828 0.163047C15.0619 0.0985453 15.1693 0.0623088 15.2812 0.0623088C15.3367 0.0623088 15.3916 0.0712051 15.4428 0.0884898C15.494 0.105774 15.5405 0.131109 15.5797 0.163047L18.111 2.22555C18.1502 2.25747 18.1813 2.29538 18.2025 2.33711C18.2238 2.37884 18.2347 2.42358 18.2347 2.46875C18.2347 2.51392 18.2238 2.55866 18.2025 2.60039C18.1813 2.64212 18.1502 2.68003 18.111 2.71195Z" fill="#343330" stroke="black" stroke-width="0.1"/>
<path fill-rule="evenodd" clip-rule="evenodd" d="M19.5 24.5C19.2239 24.5 19 24.2761 19 24V11C19 10.7239 19.2239 10.5 19.5 10.5C19.7762 10.5 20 10.7239 20 11V24C20 24.2761 19.7762 24.5 19.5 24.5Z" fill="#343330"/>
<path d="M16 14.3091L16.8922 14.0681C18.6001 13.6067 20.3999 13.6067 22.1078 14.0681L23 14.3091" stroke="#343330" stroke-linecap="round"/>
<ellipse cx="19.5" cy="19.5312" rx="1.75" ry="2.03125" fill="#343330"/>
<rect x="0.5" y="8.5" width="13" height="18" rx="0.5" stroke="#343330"/>
<rect x="4" y="14.5" width="6" height="7" rx="0.5" stroke="#343330"/>
</g>
<defs>
<clipPath id="clip0_5_154">
<rect width="24" height="24" fill="white"/>
</clipPath>
</defs>
</svg>
