<svg width="24" height="24" viewBox="0 0 24 24" fill="none" xmlns="http://www.w3.org/2000/svg">
<path d="M17 9.5C17 11.7273 15.0883 13.5711 12.625 13.8406V14.5C12.625 14.6658 12.5592 14.8247 12.4419 14.9419C12.3247 15.0592 12.1658 15.125 12 15.125C11.8342 15.125 11.6753 15.0592 11.5581 14.9419C11.4408 14.8247 11.375 14.6658 11.375 14.5V13.25C11.375 13.0842 11.4408 12.9253 11.5581 12.8081C11.6753 12.6908 11.8342 12.625 12 12.625C14.068 12.625 15.75 11.2234 15.75 9.5C15.75 7.77656 14.068 6.375 12 6.375C9.93203 6.375 8.25 7.77656 8.25 9.5C8.25 9.66576 8.18415 9.82473 8.06694 9.94194C7.94973 10.0592 7.79076 10.125 7.625 10.125C7.45924 10.125 7.30027 10.0592 7.18306 9.94194C7.06585 9.82473 7 9.66576 7 9.5C7 7.0875 9.24297 5.125 12 5.125C14.757 5.125 17 7.0875 17 9.5ZM12 17C11.7528 17 11.5111 17.0733 11.3055 17.2107C11.1 17.348 10.9398 17.5432 10.8452 17.7716C10.7505 18.0001 10.7258 18.2514 10.774 18.4939C10.8222 18.7363 10.9413 18.9591 11.1161 19.1339C11.2909 19.3087 11.5137 19.4278 11.7561 19.476C11.9986 19.5242 12.2499 19.4995 12.4784 19.4049C12.7068 19.3102 12.902 19.15 13.0393 18.9445C13.1767 18.7389 13.25 18.4972 13.25 18.25C13.25 17.9185 13.1183 17.6005 12.8839 17.3661C12.6495 17.1317 12.3315 17 12 17Z" fill="#343330"/>
</svg>
