<svg width="24" height="24" viewBox="0 0 24 24" fill="none" xmlns="http://www.w3.org/2000/svg">
<g clip-path="url(#clip0_5_124)">
<path fill-rule="evenodd" clip-rule="evenodd" d="M5.00002 24.5C4.72387 24.5 4.50002 24.2761 4.50002 24V12C4.50002 11.7239 4.72387 11.5 5.00002 11.5C5.27616 11.5 5.50002 11.7239 5.50002 12V24C5.50002 24.2761 5.27616 24.5 5.00002 24.5Z" fill="#343330"/>
<path d="M2 15.0545L2.20671 14.9944C4.03109 14.4637 5.96891 14.4637 7.79329 14.9944L8 15.0545" stroke="#343330" stroke-linecap="round"/>
<ellipse cx="5" cy="19.875" rx="1.5" ry="1.875" fill="#343330"/>
<rect x="7.66446" y="9.31466" width="11.0033" height="15.2902" rx="0.5" transform="rotate(-25 7.66446 9.31466)" stroke="#343330"/>
<rect x="12.3914" y="12.353" width="4.83548" height="5.56492" rx="0.5" transform="rotate(-25 12.3914 12.353)" stroke="#343330"/>
<rect x="11.5" y="-12.5" width="11.0033" height="15.2902" rx="0.5" stroke="#343330"/>
</g>
<defs>
<clipPath id="clip0_5_124">
<rect width="24" height="24" fill="white"/>
</clipPath>
</defs>
</svg>
