<svg width="24" height="24" viewBox="0 0 24 24" fill="none" xmlns="http://www.w3.org/2000/svg">
<path fill-rule="evenodd" clip-rule="evenodd" d="M9.5 10H9C8.44772 10 8 10.4477 8 11V22C8 22.5523 8.44772 23 9 23H15C15.5523 23 16 22.5523 16 22V11C16 10.4477 15.5523 10 15 10H11.5V10.3H15C15.3866 10.3 15.7 10.6134 15.7 11V22C15.7 22.3866 15.3866 22.7 15 22.7H9C8.6134 22.7 8.3 22.3866 8.3 22V11C8.3 10.6134 8.6134 10.3 9 10.3H9.5V10Z" fill="#343330"/>
<path d="M8.20414 20.1111L9.39901 18.8167H14.601L15.7959 20.1111L14.7049 21.293C14.6387 21.3647 14.5454 21.4056 14.4478 21.4056H9.55225C9.45456 21.4056 9.36133 21.3647 9.29507 21.293L8.20414 20.1111Z" stroke="#343330" stroke-width="0.3"/>
<path d="M8.20414 14.3333L9.39901 15.6278H14.601L15.7959 14.3333L14.7049 13.1515C14.6387 13.0797 14.5454 13.0389 14.4478 13.0389H9.55225C9.45456 13.0389 9.36133 13.0797 9.29507 13.1515L8.20414 14.3333Z" stroke="#343330" stroke-width="0.3"/>
<line x1="9.48333" y1="15.7778" x2="9.48333" y2="18.6667" stroke="#343330" stroke-width="0.3"/>
<line x1="14.6833" y1="15.7778" x2="14.6833" y2="18.6667" stroke="#343330" stroke-width="0.3"/>
<path d="M11.6468 9.20492C11.6026 9.15875 11.5569 9.11117 11.5397 9.06934C11.5238 9.03102 11.5228 8.9675 11.5219 8.90598C11.5201 8.7916 11.5182 8.66199 11.4281 8.57187C11.338 8.48176 11.2084 8.47988 11.094 8.47812C11.0325 8.47719 10.969 8.47625 10.9307 8.46031C10.8889 8.44309 10.8412 8.39738 10.7951 8.3532C10.7142 8.27551 10.6223 8.1875 10.5 8.1875C10.3777 8.1875 10.2859 8.27551 10.2049 8.3532C10.1587 8.39738 10.1112 8.44309 10.0693 8.46031C10.0312 8.47625 9.9675 8.47719 9.90598 8.47812C9.7916 8.47988 9.66199 8.48176 9.57187 8.57187C9.48176 8.66199 9.48047 8.7916 9.47812 8.90598C9.47719 8.9675 9.47625 9.03102 9.46031 9.06934C9.44309 9.11105 9.39738 9.15875 9.3532 9.20492C9.27551 9.28578 9.1875 9.37766 9.1875 9.5C9.1875 9.62234 9.27551 9.7141 9.3532 9.79508C9.39738 9.84125 9.44309 9.88883 9.46031 9.93066C9.47625 9.96898 9.47719 10.0325 9.47812 10.094C9.47988 10.2084 9.48176 10.338 9.57187 10.4281C9.66199 10.5182 9.7916 10.5201 9.90598 10.5219C9.9675 10.5228 10.031 10.5238 10.0693 10.5397C10.1111 10.5569 10.1587 10.6026 10.2049 10.6468C10.2858 10.7245 10.3777 10.8125 10.5 10.8125C10.6223 10.8125 10.7141 10.7245 10.7951 10.6468C10.8412 10.6026 10.8888 10.5569 10.9307 10.5397C10.969 10.5238 11.0325 10.5228 11.094 10.5219C11.2084 10.5201 11.338 10.5182 11.4281 10.4281C11.5182 10.338 11.5201 10.2084 11.5219 10.094C11.5228 10.0325 11.5238 9.96898 11.5397 9.93066C11.5569 9.88895 11.6026 9.84125 11.6468 9.79508C11.7245 9.71422 11.8125 9.62234 11.8125 9.5C11.8125 9.37766 11.7245 9.2859 11.6468 9.20492ZM11.5114 9.66535C11.4553 9.72395 11.3972 9.78453 11.3664 9.85895C11.3368 9.93043 11.3355 10.0121 11.3344 10.0912C11.3332 10.1732 11.3319 10.2591 11.2955 10.2955C11.259 10.3318 11.1737 10.3332 11.0912 10.3344C11.0121 10.3355 10.9304 10.3368 10.8589 10.3664C10.7845 10.3972 10.7239 10.4553 10.6654 10.5114C10.6068 10.5676 10.5469 10.625 10.5 10.625C10.4531 10.625 10.3928 10.5673 10.3346 10.5114C10.2765 10.4555 10.2155 10.3972 10.1411 10.3664C10.0696 10.3368 9.98789 10.3355 9.90879 10.3344C9.82676 10.3332 9.74086 10.3319 9.70453 10.2955C9.6682 10.259 9.6668 10.1737 9.66562 10.0912C9.66445 10.0121 9.66316 9.93043 9.63363 9.85895C9.60281 9.78453 9.54469 9.72395 9.48855 9.66535C9.43242 9.60676 9.375 9.54688 9.375 9.5C9.375 9.45312 9.43266 9.39277 9.48855 9.33465C9.54445 9.27652 9.60281 9.21547 9.63363 9.14105C9.66316 9.06957 9.66445 8.98789 9.66562 8.90879C9.6668 8.82676 9.66809 8.74086 9.70453 8.70453C9.74098 8.6682 9.82629 8.6668 9.90879 8.66562C9.98789 8.66445 10.0696 8.66316 10.1411 8.63363C10.2155 8.60281 10.2761 8.54469 10.3346 8.48855C10.3932 8.43242 10.4531 8.375 10.5 8.375C10.5469 8.375 10.6072 8.43266 10.6654 8.48855C10.7235 8.54445 10.7845 8.60281 10.8589 8.63363C10.9304 8.66316 11.0121 8.66445 11.0912 8.66562C11.1732 8.6668 11.2591 8.66809 11.2955 8.70453C11.3318 8.74098 11.3332 8.82629 11.3344 8.90879C11.3355 8.98789 11.3368 9.06957 11.3664 9.14105C11.3972 9.21547 11.4553 9.27605 11.5114 9.33465C11.5676 9.39324 11.625 9.45312 11.625 9.5C11.625 9.54688 11.5673 9.60723 11.5114 9.66535ZM10.4062 9.59375V8.9375C10.4062 8.91264 10.4161 8.88879 10.4337 8.87121C10.4513 8.85363 10.4751 8.84375 10.5 8.84375C10.5249 8.84375 10.5487 8.85363 10.5663 8.87121C10.5839 8.88879 10.5938 8.91264 10.5938 8.9375V9.59375C10.5938 9.61861 10.5839 9.64246 10.5663 9.66004C10.5487 9.67762 10.5249 9.6875 10.5 9.6875C10.4751 9.6875 10.4513 9.67762 10.4337 9.66004C10.4161 9.64246 10.4062 9.61861 10.4062 9.59375ZM10.6406 10.0156C10.6406 10.0434 10.6324 10.0706 10.6169 10.0938C10.6015 10.1169 10.5795 10.1349 10.5538 10.1455C10.5281 10.1562 10.4998 10.159 10.4726 10.1535C10.4453 10.1481 10.4202 10.1347 10.4006 10.1151C10.3809 10.0954 10.3675 10.0703 10.3621 10.0431C10.3567 10.0158 10.3594 9.98751 10.3701 9.96181C10.3807 9.93611 10.3987 9.91415 10.4219 9.8987C10.445 9.88325 10.4722 9.875 10.5 9.875C10.5373 9.875 10.5731 9.88982 10.5994 9.91619C10.6258 9.94256 10.6406 9.97833 10.6406 10.0156Z" fill="#343330"/>
<path d="M13.4 3.75C13.4 4.08825 13.3587 4.39062 13.2944 4.60515C13.262 4.71305 13.2255 4.79309 13.1894 4.84392C13.1515 4.89734 13.1283 4.9 13.125 4.9C13.1217 4.9 13.0985 4.89734 13.0606 4.84392C13.0245 4.79309 12.988 4.71305 12.9556 4.60515C12.8913 4.39062 12.85 4.08825 12.85 3.75C12.85 3.41175 12.8913 3.10938 12.9556 2.89485C12.988 2.78695 13.0245 2.70691 13.0606 2.65608C13.0985 2.60266 13.1217 2.6 13.125 2.6C13.1283 2.6 13.1515 2.60266 13.1894 2.65608C13.2255 2.70691 13.262 2.78695 13.2944 2.89485C13.3587 3.10938 13.4 3.41175 13.4 3.75Z" stroke="#343330" stroke-width="0.2"/>
<path fill-rule="evenodd" clip-rule="evenodd" d="M12.1 3.00391V1H11.9V3.00391C11.933 3.00132 11.9664 3 12 3C12.0336 3 12.067 3.00132 12.1 3.00391ZM12.1 5.99609C12.067 5.99868 12.0336 6 12 6C11.9664 6 11.933 5.99868 11.9 5.99609V8H12.1V5.99609Z" fill="#343330"/>
<mask id="path-9-inside-1_1_3" fill="white">
<path fill-rule="evenodd" clip-rule="evenodd" d="M10.9123 4.99389C10.9 4.99793 10.8876 5 10.875 5C10.7862 5 10.7046 4.89715 10.6404 4.72523C10.74 5.44681 11.3108 6 12 6C12.6892 6 13.26 5.44681 13.3596 4.72523C13.2954 4.89715 13.2138 5 13.125 5C13.1124 5 13.1 4.99793 13.0877 4.99389C12.9098 5.47333 12.4811 5.8 12 5.8C11.5189 5.8 11.0902 5.47333 10.9123 4.99389ZM11.2429 3.50639C11.4496 3.3141 11.7157 3.2 12 3.2C12.2843 3.2 12.5504 3.3141 12.7571 3.5064C12.7621 3.42228 12.7696 3.34121 12.7794 3.26408C12.5579 3.09752 12.2894 3 12 3C11.7106 3 11.4421 3.09752 11.2206 3.26408C11.2304 3.34121 11.2379 3.42228 11.2429 3.50639Z"/>
</mask>
<path fill-rule="evenodd" clip-rule="evenodd" d="M10.9123 4.99389C10.9 4.99793 10.8876 5 10.875 5C10.7862 5 10.7046 4.89715 10.6404 4.72523C10.74 5.44681 11.3108 6 12 6C12.6892 6 13.26 5.44681 13.3596 4.72523C13.2954 4.89715 13.2138 5 13.125 5C13.1124 5 13.1 4.99793 13.0877 4.99389C12.9098 5.47333 12.4811 5.8 12 5.8C11.5189 5.8 11.0902 5.47333 10.9123 4.99389ZM11.2429 3.50639C11.4496 3.3141 11.7157 3.2 12 3.2C12.2843 3.2 12.5504 3.3141 12.7571 3.5064C12.7621 3.42228 12.7696 3.34121 12.7794 3.26408C12.5579 3.09752 12.2894 3 12 3C11.7106 3 11.4421 3.09752 11.2206 3.26408C11.2304 3.34121 11.2379 3.42228 11.2429 3.50639Z" fill="#D9D9D9"/>
<path d="M10.9123 4.99389L11.0998 4.92431L11.0328 4.74367L10.8498 4.80392L10.9123 4.99389ZM10.6404 4.72523L10.8277 4.65523L10.4423 4.75258L10.6404 4.72523ZM13.3596 4.72523L13.5577 4.75258L13.1723 4.65523L13.3596 4.72523ZM13.0877 4.99389L13.1502 4.80392L12.9672 4.74367L12.9002 4.92431L13.0877 4.99389ZM11.2429 3.50639L11.0432 3.51823L11.0683 3.94186L11.3791 3.65285L11.2429 3.50639ZM12.7571 3.5064L12.6209 3.65285L12.9317 3.94186L12.9568 3.51823L12.7571 3.5064ZM12.7794 3.26408L12.9778 3.28922L12.9924 3.17401L12.8996 3.10422L12.7794 3.26408ZM11.2206 3.26408L11.1004 3.10422L11.0076 3.17401L11.0222 3.28922L11.2206 3.26408ZM10.8498 4.80392C10.8567 4.80165 10.8653 4.8 10.875 4.8V5.2C10.9099 5.2 10.9434 5.19422 10.9748 5.18386L10.8498 4.80392ZM10.875 4.8C10.914 4.8 10.9222 4.82306 10.9018 4.79869C10.8826 4.77566 10.8558 4.73021 10.8277 4.65523L10.453 4.79523C10.4893 4.89217 10.5354 4.9841 10.5951 5.05548C10.6538 5.12552 10.7472 5.2 10.875 5.2V4.8ZM10.4423 4.75258C10.5535 5.55828 11.1966 6.2 12 6.2V5.8C11.4249 5.8 10.9265 5.33533 10.8385 4.69788L10.4423 4.75258ZM12 6.2C12.8034 6.2 13.4465 5.55828 13.5577 4.75258L13.1615 4.69788C13.0735 5.33533 12.5751 5.8 12 5.8V6.2ZM13.1723 4.65523C13.1442 4.73021 13.1174 4.77566 13.0982 4.79869C13.0778 4.82306 13.086 4.8 13.125 4.8V5.2C13.2528 5.2 13.3462 5.12552 13.4049 5.05548C13.4646 4.9841 13.5107 4.89217 13.547 4.79523L13.1723 4.65523ZM13.125 4.8C13.1347 4.8 13.1433 4.80165 13.1502 4.80392L13.0252 5.18386C13.0566 5.19422 13.0901 5.2 13.125 5.2V4.8ZM12.9002 4.92431C12.7474 5.33592 12.3868 5.6 12 5.6V6C12.5755 6 13.0721 5.61074 13.2752 5.06348L12.9002 4.92431ZM12 5.6C11.6132 5.6 11.2526 5.33592 11.0998 4.92431L10.7248 5.06348C10.9279 5.61074 11.4245 6 12 6V5.6ZM11.3791 3.65285C11.5521 3.49191 11.7705 3.4 12 3.4V3C11.6608 3 11.3472 3.13628 11.1067 3.35994L11.3791 3.65285ZM12 3.4C12.2295 3.4 12.4479 3.49191 12.6209 3.65285L12.8933 3.35994C12.6528 3.13628 12.3392 3 12 3V3.4ZM12.9568 3.51823C12.9615 3.43836 12.9686 3.36172 12.9778 3.28922L12.581 3.23894C12.5706 3.32069 12.5627 3.40621 12.5575 3.49456L12.9568 3.51823ZM12.8996 3.10422C12.6457 2.91331 12.3355 2.8 12 2.8V3.2C12.2433 3.2 12.4701 3.28173 12.6592 3.42393L12.8996 3.10422ZM12 2.8C11.6645 2.8 11.3543 2.91331 11.1004 3.10422L11.3408 3.42393C11.5299 3.28173 11.7567 3.2 12 3.2V2.8ZM11.0222 3.28922C11.0314 3.36172 11.0385 3.43836 11.0432 3.51823L11.4425 3.49456C11.4373 3.40621 11.4294 3.32069 11.419 3.23894L11.0222 3.28922Z" fill="#343330" mask="url(#path-9-inside-1_1_3)"/>
<path d="M11.15 3.75C11.15 4.08825 11.1087 4.39062 11.0444 4.60515C11.012 4.71305 10.9755 4.79309 10.9394 4.84392C10.9015 4.89734 10.8783 4.9 10.875 4.9C10.8717 4.9 10.8485 4.89734 10.8106 4.84392C10.7745 4.79309 10.738 4.71305 10.7056 4.60515C10.6413 4.39062 10.6 4.08825 10.6 3.75C10.6 3.41175 10.6413 3.10938 10.7056 2.89485C10.738 2.78695 10.7745 2.70691 10.8106 2.65608C10.8485 2.60266 10.8717 2.6 10.875 2.6C10.8783 2.6 10.9015 2.60266 10.9394 2.65608C10.9755 2.70691 11.012 2.78695 11.0444 2.89485C11.1087 3.10938 11.15 3.41175 11.15 3.75Z" stroke="#343330" stroke-width="0.2"/>
<line x1="10" y1="2.4" x2="14" y2="2.4" stroke="#343330" stroke-width="0.2"/>
</svg>
