<svg width="24" height="24" viewBox="0 0 24 24" fill="none" xmlns="http://www.w3.org/2000/svg">
<g clip-path="url(#clip0_3_5)">
<rect x="0.000666142" y="0.707772" width="9" height="14" rx="0.5" transform="matrix(0.707107 0.707107 -0.705774 0.708436 11.0863 6.20589)" stroke="#343330"/>
<rect x="0.000666142" y="0.707772" width="5" height="5" rx="0.5" transform="matrix(0.707107 0.707107 -0.705774 0.708436 9.43626 10.6887)" stroke="#343330"/>
<path fill-rule="evenodd" clip-rule="evenodd" d="M15.3956 8.62064C15.2005 8.4252 15.2005 8.10832 15.3956 7.91287L21.6822 1.6144C21.8773 1.41895 22.1936 1.41895 22.3887 1.6144C22.5837 1.80985 22.5837 2.12672 22.3887 2.32217L16.102 8.62064C15.907 8.81609 15.5907 8.81609 15.3956 8.62064Z" fill="#343330"/>
<path d="M18.4706 1.60325L18.9185 1.88251C20.2171 2.69232 21.3128 3.79006 22.121 5.09112L22.3998 5.53979" stroke="#343330" stroke-linecap="round"/>
<circle cx="1.39047" cy="1.39047" r="1.39047" transform="matrix(0.706441 0.707772 -0.706441 0.707772 17.9098 4.13337)" fill="#343330"/>
<path d="M23.3589 12.8778V15.3527C23.3589 15.4688 23.3128 15.5801 23.2307 15.6622C23.1486 15.7443 23.0373 15.7904 22.9212 15.7904C22.8051 15.7904 22.6937 15.7443 22.6116 15.6622C22.5295 15.5801 22.4834 15.4688 22.4834 15.3527L22.4838 13.9339L15.9339 20.4838L17.3527 20.4834C17.4688 20.4834 17.5801 20.5295 17.6622 20.6116C17.7443 20.6937 17.7904 20.8051 17.7904 20.9212C17.7904 21.0373 17.7443 21.1486 17.6622 21.2307C17.5801 21.3128 17.4688 21.3589 17.3527 21.3589L14.8778 21.3589C14.8203 21.3589 14.7634 21.3476 14.7103 21.3257C14.6571 21.3037 14.6089 21.2714 14.5682 21.2308C14.5276 21.1901 14.4953 21.1418 14.4733 21.0887C14.4514 21.0356 14.4401 20.9787 14.4401 20.9212L14.4401 18.4463C14.4401 18.3302 14.4862 18.2189 14.5683 18.1368C14.6504 18.0547 14.7617 18.0085 14.8778 18.0085C14.9939 18.0085 15.1053 18.0547 15.1874 18.1368C15.2695 18.2189 15.3156 18.3302 15.3156 18.4463L15.3152 19.8651L21.8651 13.3152L20.4463 13.3156C20.3302 13.3156 20.2189 13.2694 20.1368 13.1874C20.0547 13.1053 20.0085 12.9939 20.0085 12.8778C20.0085 12.7617 20.0547 12.6504 20.1368 12.5683C20.2189 12.4862 20.3302 12.4401 20.4463 12.4401L22.9212 12.4401C22.9787 12.44 23.0356 12.4514 23.0887 12.4733C23.1418 12.4953 23.1901 12.5276 23.2308 12.5682C23.2714 12.6089 23.3037 12.6571 23.3257 12.7103C23.3476 12.7634 23.3589 12.8203 23.3589 12.8778Z" fill="#343330"/>
</g>
<defs>
<clipPath id="clip0_3_5">
<rect width="24" height="24" fill="white"/>
</clipPath>
</defs>
</svg>
