<svg width="24" height="24" viewBox="0 0 24 24" fill="none" xmlns="http://www.w3.org/2000/svg">
<g clip-path="url(#clip0_3_5)">
<rect x="0.000666142" y="0.707772" width="9" height="14" rx="0.5" transform="matrix(0.707107 0.707107 -0.705774 0.708436 11.0863 6.20589)" stroke="#343330"/>
<rect x="0.000666142" y="0.707772" width="5" height="5" rx="0.5" transform="matrix(0.707107 0.707107 -0.705774 0.708436 9.43626 10.6887)" stroke="#343330"/>
<path fill-rule="evenodd" clip-rule="evenodd" d="M15.3956 8.62064C15.2005 8.4252 15.2005 8.10832 15.3956 7.91287L21.6822 1.6144C21.8773 1.41895 22.1936 1.41895 22.3887 1.6144C22.5837 1.80985 22.5837 2.12672 22.3887 2.32217L16.102 8.62064C15.907 8.81609 15.5907 8.81609 15.3956 8.62064Z" fill="#343330"/>
<path d="M18.4706 1.60325L18.9185 1.88251C20.2171 2.69232 21.3128 3.79006 22.121 5.09112L22.3998 5.53979" stroke="#343330" stroke-linecap="round"/>
<circle cx="1.39047" cy="1.39047" r="1.39047" transform="matrix(0.706441 0.707772 -0.706441 0.707772 17.9098 4.13337)" fill="#343330"/>
<path d="M23.3537 13.2928L21.7072 11.6466C21.6607 11.6001 21.6056 11.5633 21.545 11.5381C21.4843 11.513 21.4193 11.5001 21.3536 11.5001C21.2879 11.5001 21.2229 11.513 21.1622 11.5381C21.1015 11.5633 21.0464 11.6001 21 11.6466L16.6462 16C16.5998 16.0464 16.563 16.1016 16.5378 16.1622C16.5127 16.2229 16.4998 16.2879 16.4998 16.3536C16.4998 16.4193 16.5127 16.4843 16.5378 16.545C16.563 16.6056 16.5998 16.6608 16.6462 16.7072L18.2928 18.3534C18.3392 18.3999 18.3944 18.4367 18.455 18.4619C18.5157 18.487 18.5807 18.4999 18.6464 18.4999C18.7121 18.4999 18.7771 18.487 18.8378 18.4619C18.8984 18.4367 18.9536 18.3999 19 18.3534L23.3537 14C23.4002 13.9536 23.437 13.8984 23.4622 13.8378C23.4873 13.7771 23.5002 13.7121 23.5002 13.6464C23.5002 13.5807 23.4873 13.5157 23.4622 13.455C23.437 13.3944 23.4002 13.3392 23.3537 13.2928ZM18.6462 18L17 16.3534L18 15.3534L18.8231 16.1769C18.8463 16.2001 18.8739 16.2185 18.9043 16.2311C18.9346 16.2437 18.9671 16.2501 19 16.2501C19.0328 16.2501 19.0654 16.2437 19.0957 16.2311C19.1261 16.2185 19.1536 16.2001 19.1769 16.1769C19.2001 16.1536 19.2185 16.1261 19.2311 16.0957C19.2437 16.0654 19.2501 16.0328 19.2501 16C19.2501 15.9672 19.2437 15.9346 19.2311 15.9043C19.2185 15.8739 19.2001 15.8464 19.1769 15.8231L18.3534 15L19 14.3534L19.8231 15.1769C19.87 15.2238 19.9337 15.2501 20 15.2501C20.0663 15.2501 20.13 15.2238 20.1769 15.1769C20.2238 15.13 20.2501 15.0663 20.2501 15C20.2501 14.9337 20.2238 14.87 20.1769 14.8231L19.3534 14L20 13.3534L20.8231 14.1769C20.8463 14.2001 20.8739 14.2185 20.9043 14.2311C20.9346 14.2437 20.9671 14.2501 21 14.2501C21.0328 14.2501 21.0654 14.2437 21.0957 14.2311C21.1261 14.2185 21.1536 14.2001 21.1769 14.1769C21.2001 14.1536 21.2185 14.1261 21.2311 14.0957C21.2437 14.0654 21.2501 14.0328 21.2501 14C21.2501 13.9672 21.2437 13.9346 21.2311 13.9043C21.2185 13.8739 21.2001 13.8464 21.1769 13.8231L20.3534 13L21.3534 12L23 13.6466L18.6462 18Z" fill="#343330" stroke="#343330" stroke-width="0.3" stroke-linejoin="round"/>
</g>
<defs>
<clipPath id="clip0_3_5">
<rect width="24" height="24" fill="white"/>
</clipPath>
</defs>
</svg>
